<?xml version="1.0" encoding="UTF-8"?>
<svg width="38px" height="30px" viewBox="0 0 38 30" version="1.1" xmlns="http://www.w3.org/2000/svg" xmlns:xlink="http://www.w3.org/1999/xlink">
    <g id="Page-1" stroke="none" stroke-width="1" fill="none" fill-rule="evenodd">
        <g id="ShowSpot">
            <path d="M37.7888889,14.0883333 C29.1333333,-4.36277778 8.86666667,-4.36277778 0.168888889,14.0883333 C0.168888889,14.0883333 0,14.4683333 0,15.1438889 C0,15.6505556 0.168888889,15.9461111 0.168888889,15.9461111 C8.86666667,34.3972222 29.1333333,34.3972222 37.7888889,15.9461111 C37.7888889,15.9461111 37.9577778,15.5238889 38,15.0172222 C38,14.5105556 37.7888889,14.0883333 37.7888889,14.0883333 Z M19,27 C12.376,27 7,21.624 7,15 C7,8.376 12.376,3 19,3 C25.624,3 31,8.376 31,15 C31,21.624 25.624,27 19,27 Z" id="Eye" fill="#FFF" fill-rule="nonzero"></path>
            <circle id="Outer" stroke="#FFF" cx="19" cy="15" r="9.5"></circle>
            <circle id="Inner" stroke="#FFF" cx="19" cy="15" r="6.5"></circle>
            <path d="M15,15 C15,17.209139 16.790861,19 19,19 C21.209139,19 23,17.209139 23,15 C23,12.790861 21.209139,11 19,11 C19,13.209139 17.209139,15 15,15 Z" id="Iris" fill="#FFF"></path>
        </g>
    </g>
</svg>